{
    "accessors": {
        "accessor_10": {
            "bufferView": "bufferView_14",
            "byteOffset": 0,
            "byteStride": 0,
            "componentType": 5123,
            "count": 1152,
            "type": "SCALAR"
        },
        "accessor_12": {
            "bufferView": "bufferView_15",
            "byteOffset": 0,
            "byteStride": 12,
            "componentType": 5126,
            "count": 196,
            "max": [
                53.471099853515625,
                16.62900161743164,
                25.465299606323242
            ],
            "min": [
                -0.3689579963684082,
                -18.5137996673584,
                0
            ],
            "type": "VEC3"
        }
    },
    "animations": {},
    "asset": {
        "generator": "collada2gltf@",
        "premultipliedAlpha": true,
        "profile": "WebGL 1.0.2",
        "version": 0.800000011920929
    },
    "bufferViews": {
        "bufferView_14": {
            "buffer": "input",
            "byteLength": 2304,
            "byteOffset": 0,
            "target": 34963
        },
        "bufferView_15": {
            "buffer": "input",
            "byteLength": 2352,
            "byteOffset": 2304,
            "target": 34962
        }
    },
    "buffers": {
        "input": {
            "byteLength": 4656,
            "type": "arraybuffer",
            "uri": "data:application/octet-stream;base64,"
        }
    },
    "materials": {
        "default_ai_0.2_sh_0.2_tr_0.0_dc_r_0.8_g_0.8_b_0.8_sc_r_1.0_g_1.0_b_1.0_ec_r_0.0_g_0.0_b_0_eff": {
            "instanceTechnique": {
                "technique": "technique0",
                "values": {
                    "diffuse": [
                        0.800000011920929,
                        0.800000011920929,
                        0.800000011920929,
                        1
                    ],
                    "emission": [
                        0,
                        0,
                        0,
                        1
                    ]
                }
            },
            "name": "default_ai_0.2_sh_0.2_tr_0.0_dc_r_0.8_g_0.8_b_0.8_sc_r_1.0_g_1.0_b_1.0_ec_r_0.0_g_0.0_b_0_mat"
        }
    },
    "meshes": {
        "geometry0": {
            "name": "geometry0",
            "primitives": [
                {
                    "attributes": {
                        "POSITION": "accessor_12"
                    },
                    "indices": "accessor_10",
                    "material": "default_ai_0.2_sh_0.2_tr_0.0_dc_r_0.8_g_0.8_b_0.8_sc_r_1.0_g_1.0_b_1.0_ec_r_0.0_g_0.0_b_0_eff",
                    "primitive": 4
                }
            ]
        }
    },
    "nodes": {
        "node_0": {
            "children": [],
            "matrix": [
                1,
                0,
                0,
                0,
                0,
                1,
                0,
                0,
                0,
                0,
                1,
                0,
                0,
                0,
                0,
                1
            ],
            "meshes": [
                "geometry0"
            ],
            "name": ""
        },
        "node_1": {
            "children": [
                "node_0"
            ],
            "matrix": [
                1,
                0,
                0,
                0,
                0,
                0,
                -1,
                0,
                0,
                1,
                0,
                0,
                0,
                0,
                0,
                1
            ],
            "name": "Y_UP_Transform"
        }
    },
    "programs": {
        "program_0": {
            "attributes": [
                "a_position"
            ],
            "fragmentShader": "input0FS",
            "vertexShader": "input0VS"
        }
    },
    "scene": "defaultScene",
    "scenes": {
        "defaultScene": {
            "nodes": [
                "node_1"
            ]
        }
    },
    "shaders": {
        "input0FS": {
            "type": 35632,
            "uri": "data:text/plain;base64,"
        },
        "input0VS": {
            "type": 35633,
            "uri": "data:text/plain;base64,"
        }
    },
    "skins": {},
    "techniques": {
        "technique0": {
            "parameters": {
                "diffuse": {
                    "type": 35666
                },
                "emission": {
                    "type": 35666
                },
                "modelViewMatrix": {
                    "semantic": "MODELVIEW",
                    "type": 35676
                },
                "position": {
                    "semantic": "POSITION",
                    "type": 35665
                },
                "projectionMatrix": {
                    "semantic": "PROJECTION",
                    "type": 35676
                }
            },
            "pass": "defaultPass",
            "passes": {
                "defaultPass": {
                    "details": {
                        "commonProfile": {
                            "extras": {
                                "doubleSided": false
                            },
                            "lightingModel": "Lambert",
                            "parameters": [
                                "diffuse",
                                "emission",
                                "modelViewMatrix",
                                "projectionMatrix"
                            ]
                        },
                        "type": "COLLADA-1.4.1/commonProfile"
                    },
                    "instanceProgram": {
                        "attributes": {
                            "a_position": "position"
                        },
                        "program": "program_0",
                        "uniforms": {
                            "u_diffuse": "diffuse",
                            "u_emission": "emission",
                            "u_modelViewMatrix": "modelViewMatrix",
                            "u_projectionMatrix": "projectionMatrix"
                        }
                    },
                    "states": {
                        "enable": [
                            2884,
                            2929
                        ]
                    }
                }
            }
        }
    }
}