{
    "accessors": {
        "accessor_102": {
            "bufferView": "bufferView_142",
            "byteOffset": 4758,
            "byteStride": 0,
            "componentType": 5123,
            "count": 2,
            "type": "SCALAR"
        },
        "accessor_104": {
            "bufferView": "bufferView_143",
            "byteOffset": 41640,
            "byteStride": 12,
            "componentType": 5126,
            "count": 2,
            "max": [
                26.708608627319336,
                -30.12465476989746,
                13.652856826782227
            ],
            "min": [
                26.70835304260254,
                -30.124908447265625,
                13.17581844329834
            ],
            "type": "VEC3"
        },
        "accessor_114": {
            "bufferView": "bufferView_142",
            "byteOffset": 4762,
            "byteStride": 0,
            "componentType": 5123,
            "count": 2,
            "type": "SCALAR"
        },
        "accessor_116": {
            "bufferView": "bufferView_143",
            "byteOffset": 41664,
            "byteStride": 12,
            "componentType": 5126,
            "count": 2,
            "max": [
                39.321739196777344,
                -46.17720031738281,
                13.652856826782227
            ],
            "min": [
                39.321231842041016,
                -46.177452087402344,
                13.17581844329834
            ],
            "type": "VEC3"
        },
        "accessor_126": {
            "bufferView": "bufferView_142",
            "byteOffset": 4766,
            "byteStride": 0,
            "componentType": 5123,
            "count": 2,
            "type": "SCALAR"
        },
        "accessor_128": {
            "bufferView": "bufferView_143",
            "byteOffset": 41688,
            "byteStride": 12,
            "componentType": 5126,
            "count": 2,
            "max": [
                12.004573822021484,
                -41.678096771240234,
                11.511788368225098
            ],
            "min": [
                12.004192352294922,
                -41.67835235595703,
                11.034750938415527
            ],
            "type": "VEC3"
        },
        "accessor_138": {
            "bufferView": "bufferView_142",
            "byteOffset": 4770,
            "byteStride": 0,
            "componentType": 5123,
            "count": 2,
            "type": "SCALAR"
        },
        "accessor_140": {
            "bufferView": "bufferView_143",
            "byteOffset": 41712,
            "byteStride": 12,
            "componentType": 5126,
            "count": 2,
            "max": [
                24.617603302001953,
                -57.73064041137695,
                11.511788368225098
            ],
            "min": [
                24.61724853515625,
                -57.730892181396484,
                11.034750938415527
            ],
            "type": "VEC3"
        },
        "accessor_16": {
            "bufferView": "bufferView_142",
            "byteOffset": 8,
            "byteStride": 0,
            "componentType": 5123,
            "count": 2367,
            "type": "SCALAR"
        },
        "accessor_18": {
            "bufferView": "bufferView_143",
            "byteOffset": 48,
            "byteStride": 12,
            "componentType": 5126,
            "count": 1729,
            "max": [
                103.53065490722656,
                21.038820266723633,
                14.462557792663574
            ],
            "min": [
                -25.283466339111328,
                -87.54186248779297,
                -4.462348461151123
            ],
            "type": "VEC3"
        },
        "accessor_20": {
            "bufferView": "bufferView_143",
            "byteOffset": 20796,
            "byteStride": 12,
            "componentType": 5126,
            "count": 1729,
            "max": [
                0.7863109707832336,
                0.7882729768753052,
                1
            ],
            "min": [
                -0.7911450266838074,
                -0.7887250185012817,
                -1
            ],
            "type": "VEC3"
        },
        "accessor_30": {
            "bufferView": "bufferView_142",
            "byteOffset": 0,
            "byteStride": 0,
            "componentType": 5123,
            "count": 2,
            "type": "SCALAR"
        },
        "accessor_32": {
            "bufferView": "bufferView_143",
            "byteOffset": 0,
            "byteStride": 12,
            "componentType": 5126,
            "count": 2,
            "max": [
                67.6506118774414,
                4.907711982727051,
                5.361889362335205
            ],
            "min": [
                67.51396179199219,
                4.7337727546691895,
                5.361889362335205
            ],
            "type": "VEC3"
        },
        "accessor_42": {
            "bufferView": "bufferView_142",
            "byteOffset": 4,
            "byteStride": 0,
            "componentType": 5123,
            "count": 2,
            "type": "SCALAR"
        },
        "accessor_44": {
            "bufferView": "bufferView_143",
            "byteOffset": 24,
            "byteStride": 12,
            "componentType": 5126,
            "count": 2,
            "max": [
                68.96125030517578,
                5.937605857849121,
                -3.2871155738830566
            ],
            "min": [
                68.82460021972656,
                5.763641357421875,
                -3.2871155738830566
            ],
            "type": "VEC3"
        },
        "accessor_54": {
            "bufferView": "bufferView_142",
            "byteOffset": 4742,
            "byteStride": 0,
            "componentType": 5123,
            "count": 2,
            "type": "SCALAR"
        },
        "accessor_56": {
            "bufferView": "bufferView_143",
            "byteOffset": 41544,
            "byteStride": 12,
            "componentType": 5126,
            "count": 2,
            "max": [
                69.11314392089844,
                -22.768966674805,
                11.150117874145508
            ],
            "min": [
                69.1128921508789,
                -22.769271850586,
                10.673054695129395
            ],
            "type": "VEC3"
        },
        "accessor_66": {
            "bufferView": "bufferView_142",
            "byteOffset": 4746,
            "byteStride": 0,
            "componentType": 5123,
            "count": 2,
            "type": "SCALAR"
        },
        "accessor_68": {
            "bufferView": "bufferView_143",
            "byteOffset": 41568,
            "byteStride": 12,
            "componentType": 5126,
            "count": 2,
            "max": [
                56.500267028808594,
                -6.716421127319336,
                11.150117874145508
            ],
            "min": [
                56.49976348876953,
                -6.716700077056885,
                10.673054695129395
            ],
            "type": "VEC3"
        },
        "accessor_78": {
            "bufferView": "bufferView_142",
            "byteOffset": 4750,
            "byteStride": 0,
            "componentType": 5123,
            "count": 2,
            "type": "SCALAR"
        },
        "accessor_80": {
            "bufferView": "bufferView_143",
            "byteOffset": 41592,
            "byteStride": 12,
            "componentType": 5126,
            "count": 2,
            "max": [
                41.56074905395508,
                -18.454904556274414,
                13.156996726989746
            ],
            "min": [
                41.56024169921875,
                -18.45520782470703,
                12.679960250854492
            ],
            "type": "VEC3"
        },
        "accessor_90": {
            "bufferView": "bufferView_142",
            "byteOffset": 4754,
            "byteStride": 0,
            "componentType": 5123,
            "count": 2,
            "type": "SCALAR"
        },
        "accessor_92": {
            "bufferView": "bufferView_143",
            "byteOffset": 41616,
            "byteStride": 12,
            "componentType": 5126,
            "count": 2,
            "max": [
                54.17362976074219,
                -34.507423400878906,
                13.156996726989746
            ],
            "min": [
                54.17337417602539,
                -34.50767517089844,
                12.679960250854492
            ],
            "type": "VEC3"
        }
    },
    "animations": {},
    "asset": {
        "generator": "collada2gltf@",
        "premultipliedAlpha": true,
        "profile": {
            "api": "WebGL",
            "version": "1.0.2"
        },
        "version": 1
    },
    "bufferViews": {
        "bufferView_142": {
            "buffer": "input",
            "byteLength": 4776,
            "byteOffset": 0,
            "target": 34963
        },
        "bufferView_143": {
            "buffer": "input",
            "byteLength": 41736,
            "byteOffset": 4776,
            "target": 34962
        }
    },
    "buffers": {
        "input": {
            "byteLength": 46512,
            "type": "arraybuffer",
            "uri": "data:application/octet-stream;base64,"
        }
    },
    "materials": {
        "ID12": {
            "name": "edge_color000255",
            "technique": "technique0",
            "values": {}
        },
        "ID3": {
            "name": "material",
            "technique": "technique1",
            "values": {
                "diffuse": [
                    1,
                    1,
                    1,
                    1
                ]
            }
        }
    },
    "meshes": {
        "ID10": {
            "name": "ID10",
            "primitives": [
                {
                    "attributes": {
                        "POSITION": "accessor_32"
                    },
                    "indices": "accessor_30",
                    "material": "ID12",
                    "mode": 1
                }
            ]
        },
        "ID16": {
            "name": "ID16",
            "primitives": [
                {
                    "attributes": {
                        "POSITION": "accessor_44"
                    },
                    "indices": "accessor_42",
                    "material": "ID12",
                    "mode": 1
                }
            ]
        },
        "ID2": {
            "name": "ID2",
            "primitives": [
                {
                    "attributes": {
                        "NORMAL": "accessor_20",
                        "POSITION": "accessor_18"
                    },
                    "indices": "accessor_16",
                    "material": "ID3",
                    "mode": 4
                }
            ]
        },
        "ID20": {
            "name": "ID20",
            "primitives": [
                {
                    "attributes": {
                        "POSITION": "accessor_56"
                    },
                    "indices": "accessor_54",
                    "material": "ID12",
                    "mode": 1
                }
            ]
        },
        "ID24": {
            "name": "ID24",
            "primitives": [
                {
                    "attributes": {
                        "POSITION": "accessor_68"
                    },
                    "indices": "accessor_66",
                    "material": "ID12",
                    "mode": 1
                }
            ]
        },
        "ID28": {
            "name": "ID28",
            "primitives": [
                {
                    "attributes": {
                        "POSITION": "accessor_80"
                    },
                    "indices": "accessor_78",
                    "material": "ID12",
                    "mode": 1
                }
            ]
        },
        "ID32": {
            "name": "ID32",
            "primitives": [
                {
                    "attributes": {
                        "POSITION": "accessor_92"
                    },
                    "indices": "accessor_90",
                    "material": "ID12",
                    "mode": 1
                }
            ]
        },
        "ID36": {
            "name": "ID36",
            "primitives": [
                {
                    "attributes": {
                        "POSITION": "accessor_104"
                    },
                    "indices": "accessor_102",
                    "material": "ID12",
                    "mode": 1
                }
            ]
        },
        "ID40": {
            "name": "ID40",
            "primitives": [
                {
                    "attributes": {
                        "POSITION": "accessor_116"
                    },
                    "indices": "accessor_114",
                    "material": "ID12",
                    "mode": 1
                }
            ]
        },
        "ID44": {
            "name": "ID44",
            "primitives": [
                {
                    "attributes": {
                        "POSITION": "accessor_128"
                    },
                    "indices": "accessor_126",
                    "material": "ID12",
                    "mode": 1
                }
            ]
        },
        "ID48": {
            "name": "ID48",
            "primitives": [
                {
                    "attributes": {
                        "POSITION": "accessor_140"
                    },
                    "indices": "accessor_138",
                    "material": "ID12",
                    "mode": 1
                }
            ]
        }
    },
    "nodes": {
        "node_0": {
            "children": [],
            "matrix": [
                1,
                0,
                0,
                0,
                0,
                1,
                0,
                0,
                0,
                0,
                1,
                0,
                0,
                0,
                0,
                1
            ],
            "meshes": [
                "ID2",
                "ID10",
                "ID48",
                "ID16",
                "ID20",
                "ID24",
                "ID28",
                "ID32",
                "ID36",
                "ID40",
                "ID44"
            ],
            "name": "SketchUp"
        },
        "node_1": {
            "children": [
                "node_0"
            ],
            "matrix": [
                1,
                0,
                0,
                0,
                0,
                0,
                -1,
                0,
                0,
                1,
                0,
                0,
                0,
                0,
                0,
                1
            ],
            "name": "Y_UP_Transform"
        }
    },
    "programs": {
        "program_0": {
            "attributes": [
                "a_position"
            ],
            "fragmentShader": "input0FS",
            "vertexShader": "input0VS"
        },
        "program_1": {
            "attributes": [
                "a_normal",
                "a_position"
            ],
            "fragmentShader": "input1FS",
            "vertexShader": "input1VS"
        }
    },
    "scene": "defaultScene",
    "scenes": {
        "defaultScene": {
            "nodes": [
                "node_1"
            ]
        }
    },
    "shaders": {
        "input0FS": {
            "type": 35632,
            "uri": "data:text/plain;base64,"
        },
        "input0VS": {
            "type": 35633,
            "uri": "data:text/plain;base64,"
        },
        "input1FS": {
            "type": 35632,
            "uri": "data:text/plain;base64,"
        },
        "input1VS": {
            "type": 35633,
            "uri": "data:text/plain;base64,"
        }
    },
    "skins": {},
    "techniques": {
        "technique0": {
            "attributes": {
                "a_position": "position"
            },
            "parameters": {
                "modelViewMatrix": {
                    "semantic": "MODELVIEW",
                    "type": 35676
                },
                "position": {
                    "semantic": "POSITION",
                    "type": 35665
                },
                "projectionMatrix": {
                    "semantic": "PROJECTION",
                    "type": 35676
                }
            },
            "program": "program_0",
            "states": {
                "enable": [
                    2929,
                    2884
                ]
            },
            "uniforms": {
                "u_modelViewMatrix": "modelViewMatrix",
                "u_projectionMatrix": "projectionMatrix"
            }
        },
        "technique1": {
            "attributes": {
                "a_normal": "normal",
                "a_position": "position"
            },
            "parameters": {
                "diffuse": {
                    "type": 35666
                },
                "modelViewMatrix": {
                    "semantic": "MODELVIEW",
                    "type": 35676
                },
                "normal": {
                    "semantic": "NORMAL",
                    "type": 35665
                },
                "normalMatrix": {
                    "semantic": "MODELVIEWINVERSETRANSPOSE",
                    "type": 35675
                },
                "position": {
                    "semantic": "POSITION",
                    "type": 35665
                },
                "projectionMatrix": {
                    "semantic": "PROJECTION",
                    "type": 35676
                }
            },
            "program": "program_1",
            "states": {
                "enable": [
                    2929,
                    2884
                ]
            },
            "uniforms": {
                "u_diffuse": "diffuse",
                "u_modelViewMatrix": "modelViewMatrix",
                "u_normalMatrix": "normalMatrix",
                "u_projectionMatrix": "projectionMatrix"
            }
        }
    }
}